<svg xmlns="http://www.w3.org/2000/svg" width="89" height="89" viewBox="0 0 89 89"><defs><style>.a{fill:#fafafa;stroke:#f8f8f8;stroke-width:2px;}.b{fill:#c8a977;}.c{fill:#005d63;}.d{stroke:none;}.e{fill:none;}</style></defs><g transform="translate(-1476 -986)"><g transform="translate(18)"><g class="a" transform="translate(1458 986)"><circle class="d" cx="44.5" cy="44.5" r="44.5"/><circle class="e" cx="44.5" cy="44.5" r="43.5"/></g></g><g transform="translate(1308.453 818.042)"><g transform="translate(205.136 191.624)"><path class="b" d="M282.242,290.659a9.959,9.959,0,0,0,2.93,2.636A7.331,7.331,0,0,0,282.242,290.659Z" transform="translate(-280.285 -274.795)"/><path class="b" d="M276.511,266.953a1.23,1.23,0,0,0-.668-1.605,9.018,9.018,0,0,0-2.467-.631,9.991,9.991,0,0,0,.38,2.544,6.9,6.9,0,0,1,1.15.361A1.23,1.23,0,0,0,276.511,266.953Z" transform="translate(-273.375 -254.577)"/><path class="b" d="M294.214,278.465a1.23,1.23,0,1,0-1.681,1.8,6.577,6.577,0,0,1,1.4,1.811c.5.816.976,1.632,1.407,2.492a10.05,10.05,0,0,0,2.606.344c.085,0,.17,0,.255-.006a29.7,29.7,0,0,0-2.171-4.113A8.9,8.9,0,0,0,294.214,278.465Z" transform="translate(-288.002 -265.033)"/><path class="b" d="M275.538,242.363a9.833,9.833,0,0,0-.9,2.344,14.016,14.016,0,0,1,7.631,4.6,17.623,17.623,0,0,1,4.029,7.522,9.865,9.865,0,0,0,2.333-.785,20.091,20.091,0,0,0-4.518-8.363A16.451,16.451,0,0,0,275.538,242.363Z" transform="translate(-274.362 -237.156)"/><path class="b" d="M298.013,231.893a19.963,19.963,0,0,0-9.307-7.23c-.193-.077-.382-.149-.571-.221a9.969,9.969,0,0,0-2.1,1.578c-.073.072-.143.146-.213.22.625.2,1.277.43,1.965.706a17.573,17.573,0,0,1,8.2,6.351,1.23,1.23,0,0,0,2.02-1.4Z" transform="translate(-283.078 -223.19)"/><path class="b" d="M340.555,271.951a1.23,1.23,0,0,0-.629,1.621,26.491,26.491,0,0,1,1.11,3.026l.2.652.158.523q.36-.294.7-.623a9.951,9.951,0,0,0,1.234-1.478,28.781,28.781,0,0,0-1.146-3.094A1.229,1.229,0,0,0,340.555,271.951Z" transform="translate(-325.159 -260.133)"/><path class="b" d="M329.774,224.636a21.256,21.256,0,0,0-3.5-4.181,9.855,9.855,0,0,0-4.912-1.688,1.226,1.226,0,0,0,.508,1.371,20.269,20.269,0,0,1,8.371,11.309A10.009,10.009,0,0,0,329.774,224.636Z" transform="translate(-310.738 -218.767)"/></g><g transform="translate(185.814 183.939)"><path class="c" d="M227.986,335.8a1.082,1.082,0,1,0-2.149-.262c-.52,4.261-2.56,6.483-6.623,10.91l-.848.926a1.082,1.082,0,1,0,1.6,1.461l.846-.922C224.908,343.445,227.382,340.75,227.986,335.8Z" transform="translate(-210.962 -301.343)"/><path class="c" d="M301.008,332.57l.071,0a1.082,1.082,0,0,0,1.079-1.012c.027-.415.039-.824.035-1.217-.009-.852-.058-1.623-.136-2.327a14.664,14.664,0,0,1-2.242-.461,19.933,19.933,0,0,1,.214,2.81c0,.338-.007.692-.03,1.053A1.082,1.082,0,0,0,301.008,332.57Z" transform="translate(-274.658 -295.864)"/><path class="c" d="M256.371,304.212a1.085,1.085,0,0,0,1.126-1.037,12.082,12.082,0,0,1,.6-3.5,14.612,14.612,0,0,1-1.458-2.036,12.515,12.515,0,0,0-1.305,5.451A1.082,1.082,0,0,0,256.371,304.212Z" transform="translate(-239.992 -272.546)"/><path class="c" d="M273.3,357.74a1.082,1.082,0,0,0-1.31.792,26.112,26.112,0,0,1-7.03,12.412,1.082,1.082,0,1,0,1.491,1.569,28.33,28.33,0,0,0,7.641-13.463A1.082,1.082,0,0,0,273.3,357.74Z" transform="translate(-247.235 -319.363)"/><path class="c" d="M216.547,282.214c.17-1.163.345-2.365.594-3.607a7,7,0,0,1,.651-1.879A14.676,14.676,0,0,1,217.1,274a8.361,8.361,0,0,0-2.079,4.181c-.26,1.3-.439,2.528-.613,3.719-.708,4.845-1.319,9.029-7.07,14.365a1.082,1.082,0,1,0,1.472,1.587C215.118,292,215.812,287.246,216.547,282.214Z" transform="translate(-202.316 -254.128)"/><path class="c" d="M295.374,329.773a15.062,15.062,0,0,1-1.651.092c-.172,0-.344-.007-.515-.013a25.3,25.3,0,0,1,.04,3.471c-.323,6.173-2.407,11.173-6.192,14.861a1.082,1.082,0,0,0,1.511,1.55c4.188-4.081,6.49-9.564,6.843-16.3A27.511,27.511,0,0,0,295.374,329.773Z" transform="translate(-264.46 -297.592)"/><path class="c" d="M204.792,301.21a1.082,1.082,0,0,0-2.11-.485c-.98,4.261-2.073,7.977-5.529,10.3a1.082,1.082,0,1,0,1.208,1.8C202.469,310.06,203.747,305.753,204.792,301.21Z" transform="translate(-194.278 -274.299)"/><path class="c" d="M229.242,252.18a26.291,26.291,0,0,0-1.288,3.872,1.082,1.082,0,1,0,2.094.547,24.223,24.223,0,0,1,1.18-3.558,6.822,6.822,0,0,1,2.023-2.673,14.777,14.777,0,0,1,.415-2.77A8.858,8.858,0,0,0,229.242,252.18Z" transform="translate(-218.627 -233.55)"/><path class="c" d="M327.714,326.21a14.448,14.448,0,0,1-2.1.588c0,.029.008.056.012.086.618,4.321.525,7.213-1.657,12.928a1.082,1.082,0,1,0,2.022.772c2.339-6.126,2.437-9.4,1.778-14.008C327.75,326.452,327.732,326.332,327.714,326.21Z" transform="translate(-293.425 -294.815)"/><path class="c" d="M196.411,250.554c2.3-2.464,2.728-5.034,3.177-7.755a27.125,27.125,0,0,1,1.647-6.364,10.277,10.277,0,0,1,5.5-5.514,1.082,1.082,0,1,0-.854-1.989,12.43,12.43,0,0,0-6.646,6.675,28.931,28.931,0,0,0-1.783,6.84c-.427,2.594-.765,4.643-2.622,6.628a1.082,1.082,0,1,0,1.581,1.479Z" transform="translate(-192.613 -218.934)"/><path class="c" d="M258,225.141a1.07,1.07,0,0,0,.35.623,14.533,14.533,0,0,1,1.248-1.969c-.237.027-.474.058-.711.1A1.082,1.082,0,0,0,258,225.141Z" transform="translate(-242.059 -215)"/><path class="c" d="M350.1,320.653l-.759-.771q-.447.284-.909.533a34.89,34.89,0,0,1-.411,8.486,1.083,1.083,0,0,0,.914,1.228,1.1,1.1,0,0,0,.158.012,1.083,1.083,0,0,0,1.069-.926,43.44,43.44,0,0,0,.538-6.91A3.936,3.936,0,0,1,350.1,320.653Z" transform="translate(-312.217 -289.884)"/><path class="c" d="M188.531,245.144c.71-3.3,1.594-7.4,4.118-9.985a1.082,1.082,0,0,0-1.548-1.513c-2.961,3.029-3.958,7.66-4.686,11.042-.192.889-.372,1.728-.561,2.413a1.082,1.082,0,1,0,2.086.577C188.146,246.934,188.333,246.064,188.531,245.144Z" transform="translate(-185.814 -222.424)"/><path class="c" d="M220.522,207.63a1.082,1.082,0,0,0,1.393,1.657,16.033,16.033,0,0,1,10.392-3.769,14.6,14.6,0,0,1,2.8-1.886,19.393,19.393,0,0,0-2.1-.254A18.149,18.149,0,0,0,220.522,207.63Z" transform="translate(-212.562 -199.065)"/><path class="c" d="M215.619,190.258a1.076,1.076,0,0,0,.645-.214,19.059,19.059,0,0,1,11.021-3.94,1.082,1.082,0,1,0-.039-2.164,21.207,21.207,0,0,0-12.274,4.367,1.083,1.083,0,0,0,.647,1.951Z" transform="translate(-208.198 -183.939)"/><path class="c" d="M283.558,186.4a20.508,20.508,0,0,1,4.322.956,14.695,14.695,0,0,1,5.137-.019,23.264,23.264,0,0,0-9.228-3.089,1.082,1.082,0,1,0-.231,2.152Z" transform="translate(-261.235 -184.172)"/><path class="c" d="M244.361,315.5a14.556,14.556,0,0,1-4.516-2.839c-.47.964-.8,2.8-.673,6.483.143,4.071-2.63,8.644-8.481,13.982a1.082,1.082,0,0,0,1.459,1.6c6.348-5.792,9.352-10.914,9.185-15.658a18.289,18.289,0,0,1,.29-4.969,10.489,10.489,0,0,1,.882,4.883c-.238,5.881-3.35,11.745-8.538,16.088a1.083,1.083,0,0,0,1.39,1.66c5.655-4.734,9.049-11.171,9.312-17.66A14.675,14.675,0,0,0,244.361,315.5Z" transform="translate(-220.513 -284.258)"/><path class="c" d="M301.712,243.8,285.67,227.507a2.575,2.575,0,0,0-1.9-.769l-1.894-1.923a13.347,13.347,0,0,0-19.9-17.7c-.206.2-.4.413-.591.625a13.29,13.29,0,0,0-3.281,7.247,13.429,13.429,0,0,0,.407,5.311,13.306,13.306,0,0,0,2.3,4.532,13.422,13.422,0,0,0,1.015,1.161q.226.23.461.446a13.272,13.272,0,0,0,6.98,3.368,13.683,13.683,0,0,0,3.57.075q.615-.069,1.223-.2a13.418,13.418,0,0,0,5.3-2.391l.957.972.936.952a2.577,2.577,0,0,0,.739,1.913l16.042,16.294a2.585,2.585,0,0,0,3.685-3.627Zm-25.723-16.9a11.369,11.369,0,0,1-3.9.972,11.377,11.377,0,0,1-4.635-.66,11.268,11.268,0,0,1-7.083-7.972,11.354,11.354,0,0,1,.837-7.566,11.19,11.19,0,0,1,1.508-2.315c.224-.265.459-.523.711-.771a11.317,11.317,0,0,1,1.427-1.188,11.2,11.2,0,0,1,3.506-1.648A11.285,11.285,0,0,1,281.508,221.5a11.192,11.192,0,0,1-1.477,2.314,11.424,11.424,0,0,1-.783.854,11.3,11.3,0,0,1-1.221,1.04A11.17,11.17,0,0,1,275.988,226.9Z" transform="translate(-242.067 -199.021)"/></g></g></g></svg>