<svg xmlns="http://www.w3.org/2000/svg" width="89" height="89" viewBox="0 0 89 89"><defs><style>.a{fill:#fafafa;stroke:#f8f8f8;stroke-width:2px;}.b{fill:#005d63;}.c{fill:#d8b482;}.d{fill:#c8a977;}.e{fill:#e2f2ef;}.f{stroke:none;}.g{fill:none;}</style></defs><g transform="translate(-1458 -986)"><g class="a" transform="translate(1458 986)"><circle class="f" cx="44.5" cy="44.5" r="44.5"/><circle class="g" cx="44.5" cy="44.5" r="43.5"/></g><g transform="translate(1348.828 862.5)"><g transform="translate(151.285 142.575)"><rect class="b" width="1.563" height="13.614" transform="translate(0 0)"/></g><g transform="translate(154.234 148.044)"><rect class="b" width="1.563" height="8.146" transform="translate(0 0)"/></g><g transform="translate(144.282 159.305)"><g transform="translate(0 6.275)"><path class="c" d="M225.648,245.221v12.552h-6.286a1.235,1.235,0,0,1-1.236-1.234V246.457a1.236,1.236,0,0,1,1.236-1.236Z" transform="translate(-218.126 -245.221)"/></g><g transform="translate(7.522 6.275)"><path class="d" d="M255.393,246.457v10.082a1.234,1.234,0,0,1-1.234,1.234H247.77V245.221h6.389A1.236,1.236,0,0,1,255.393,246.457Z" transform="translate(-247.77 -245.221)"/></g><g transform="translate(6.34 9.168)"><path class="e" d="M244.344,256.623a1.231,1.231,0,0,0-.649,2.278v.964a.649.649,0,0,0,1.3,0V258.9a1.231,1.231,0,0,0-.649-2.278Z" transform="translate(-243.112 -256.623)"/></g><g transform="translate(2.226)"><g transform="translate(0 0.001)"><path class="c" d="M232.2,220.5v1.394c-2.184.022-3.9,1.511-3.9,4.882H226.9C226.9,222.271,229.584,220.518,232.2,220.5Z" transform="translate(-226.9 -220.497)"/></g><g transform="translate(5.297)"><path class="d" d="M253.169,226.77h-1.394c0-3.5-1.835-4.882-3.952-4.882h-.049v-1.394h.049C250.616,220.493,253.169,222.419,253.169,226.77Z" transform="translate(-247.773 -220.493)"/></g></g></g><g transform="translate(137.096 155.241)"><g transform="translate(0 0)"><path class="b" d="M204.551,204.476a14.741,14.741,0,1,0,14.741,14.741A14.741,14.741,0,0,0,204.551,204.476Zm0,27.838a13.1,13.1,0,1,1,13.1-13.1A13.1,13.1,0,0,1,204.551,232.314Z" transform="translate(-189.81 -204.476)"/></g></g><g transform="translate(128.984 140.298)"><path class="b" d="M167.454,169.385l-6.763-6.826,2.261-4.124-3.959-3.959,2.579-4.053-3.732-3.732,1.105-1.105,4.619,4.619-2.579,4.053,3.9,3.9-2.262,4.124,5.934,6Z" transform="translate(-157.841 -145.586)"/></g><g transform="translate(132.204 144.064)"><path class="b" d="M176.61,176.154l-2.482-2.483,2.384-4.247-5.981-5.981,1.105-1.105,6.819,6.818L176.07,173.4l.54.54,4.983-4.982-.093-3.8-3.627-3.627,1.105-1.105,4.069,4.069.125,5.1Z" transform="translate(-170.531 -160.428)"/></g><g transform="translate(127.186 138.5)"><circle class="d" cx="1.737" cy="1.737" r="1.737" transform="translate(0 0)"/></g><g transform="translate(150.329 140.144)"><path class="d" d="M245.433,146.717a1.737,1.737,0,1,1-1.737-1.737A1.737,1.737,0,0,1,245.433,146.717Z" transform="translate(-241.96 -144.98)"/></g><g transform="translate(153.278 144.749)"><path class="d" d="M257.056,164.863a1.737,1.737,0,1,1-1.737-1.737A1.737,1.737,0,0,1,257.056,164.863Z" transform="translate(-253.582 -163.126)"/></g><g transform="translate(158.454 147.833)"><rect class="b" width="13.614" height="1.563" transform="matrix(0.707, -0.707, 0.707, 0.707, 0, 9.626)"/></g><g transform="translate(160.54 153.784)"><rect class="b" width="8.146" height="1.563" transform="matrix(0.707, -0.707, 0.707, 0.707, 0, 5.76)"/></g><g transform="translate(167.388 146.157)"><path class="d" d="M312.152,171.642a1.737,1.737,0,1,1,0-2.456A1.737,1.737,0,0,1,312.152,171.642Z" transform="translate(-309.187 -168.678)"/></g><g transform="translate(166.218 151.499)"><path class="d" d="M307.54,192.692a1.737,1.737,0,1,1,0-2.456A1.737,1.737,0,0,1,307.54,192.692Z" transform="translate(-304.575 -189.727)"/></g><g transform="translate(147.811 147.902)"><rect class="b" width="1.563" height="8.146"/></g><g transform="translate(146.856 144.627)"><path class="d" d="M231.745,164.384a1.737,1.737,0,1,1-1.737-1.737A1.737,1.737,0,0,1,231.745,164.384Z" transform="translate(-228.271 -162.647)"/></g><g transform="translate(150.811 183.354)"><rect class="b" width="1.563" height="13.614" transform="translate(0)"/></g><g transform="translate(147.861 183.496)"><rect class="b" width="1.563" height="5.008"/></g><g transform="translate(149.855 195.926)"><path class="d" d="M240.092,366.548a1.737,1.737,0,1,1,1.736,1.737A1.737,1.737,0,0,1,240.092,366.548Z" transform="translate(-240.092 -364.811)"/></g><g transform="translate(146.906 188.325)"><path class="d" d="M228.47,336.594a1.737,1.737,0,1,1,1.737,1.737A1.737,1.737,0,0,1,228.47,336.594Z" transform="translate(-228.47 -334.857)"/></g><g transform="translate(154.284 183.496)"><rect class="b" width="1.563" height="8.146"/></g><g transform="translate(153.329 191.444)"><path class="d" d="M253.78,348.883a1.737,1.737,0,1,1,1.737,1.737A1.736,1.736,0,0,1,253.78,348.883Z" transform="translate(-253.78 -347.147)"/></g><g transform="translate(124.177 169.201)"><rect class="b" width="13.614" height="1.563" transform="translate(0 0)"/></g><g transform="translate(129.645 166.251)"><rect class="b" width="8.146" height="1.563" transform="translate(0)"/></g><g transform="translate(121.746 168.245)"><path class="d" d="M131.051,255.724a1.737,1.737,0,1,1-1.736,1.737A1.737,1.737,0,0,1,131.051,255.724Z" transform="translate(-129.315 -255.724)"/></g><g transform="translate(126.35 165.296)"><path class="d" d="M149.2,244.1a1.737,1.737,0,1,1-1.737,1.737A1.737,1.737,0,0,1,149.2,244.1Z" transform="translate(-147.46 -244.102)"/></g><g transform="translate(122.447 172.674)"><rect class="b" width="15.344" height="1.563" transform="translate(0 0)"/></g><g transform="translate(119.172 171.719)"><path class="d" d="M120.909,269.414a1.737,1.737,0,1,1-1.737,1.737A1.737,1.737,0,0,1,120.909,269.414Z" transform="translate(-119.172 -269.414)"/></g><g transform="translate(137.85 142.368)"><path class="d" d="M195.743,154.254a1.737,1.737,0,1,1-2.456,0A1.737,1.737,0,0,1,195.743,154.254Z" transform="translate(-192.778 -153.745)"/></g><g transform="translate(123.687 181.908)"><path class="b" d="M138.069,319.535l-1.105-1.105,4.619-4.619,4.053,2.579,3.9-3.9,4.124,2.262,5.182-5.182,1.5.715-6.4,6.4-4.124-2.261-3.959,3.959L141.8,315.8Z" transform="translate(-136.964 -309.569)"/></g><g transform="translate(127.453 176.014)"><path class="b" d="M154.82,298.979l-1.105-1.105,6.819-6.819,4.247,2.385.54-.54-4.982-4.983-3.8.093-3.627,3.627-1.105-1.105,4.069-4.069,5.1-.125,6.561,6.562-2.482,2.482L160.8,293Z" transform="translate(-151.805 -286.339)"/></g><g transform="translate(121.888 190.199)"><path class="d" d="M130.386,342.75a1.737,1.737,0,1,1,0,2.456A1.737,1.737,0,0,1,130.386,342.75Z" transform="translate(-129.877 -342.241)"/></g><g transform="translate(125.757 179.535)"><path class="d" d="M145.631,300.726a1.737,1.737,0,1,1,0,2.456A1.736,1.736,0,0,1,145.631,300.726Z" transform="translate(-145.122 -300.217)"/></g><g transform="translate(164.48 164.396)"><g transform="translate(0 0)"><path class="b" d="M320.015,251.321h-6.532l-1.042-4.689h-5.517l-1.317-4.515h-7.88v-1.563h9.053l1.317,4.516h5.6l1.042,4.689h5.278Z" transform="translate(-297.727 -240.553)"/></g><g transform="translate(2.711 2.779)"><path class="b" d="M317.857,264.3H312.1l-3.692-3.515V251.5h3.511l1.317,4.689H321.7v1.563h-9.643l-1.317-4.689h-.763v7.046l2.754,2.622h5.129Z" transform="translate(-308.411 -251.504)"/></g><g transform="translate(21.42 8.249)"><path class="d" d="M383.876,276.537a1.737,1.737,0,1,1,1.737-1.737A1.736,1.736,0,0,1,383.876,276.537Z" transform="translate(-382.14 -273.063)"/></g><g transform="translate(11.144 13.055)"><path class="d" d="M343.381,295.474a1.737,1.737,0,1,1,1.737-1.737A1.737,1.737,0,0,1,343.381,295.474Z" transform="translate(-341.644 -292)"/></g></g><g transform="translate(163.263 154.78)"><path class="b" d="M294.044,210.87l-1.116-1.1,6.985-7.117,2.783,1.432-.715,1.39-1.758-.9Z" transform="translate(-292.929 -202.659)"/></g><g transform="translate(170.936 155.17)"><path class="d" d="M326.133,207.159a1.737,1.737,0,1,1,0-2.456A1.736,1.736,0,0,1,326.133,207.159Z" transform="translate(-323.168 -204.194)"/></g><g transform="translate(160.54 179.805)"><path class="b" d="M288.484,310.667l-1.39-.715.907-1.764-5.8-5.8,1.105-1.105,6.609,6.61Z" transform="translate(-282.198 -301.279)"/></g><g transform="translate(164.394 187.098)"><path class="d" d="M297.9,332.985a1.737,1.737,0,1,1,2.456,0A1.737,1.737,0,0,1,297.9,332.985Z" transform="translate(-297.388 -330.02)"/></g></g></g></svg>