<svg xmlns="http://www.w3.org/2000/svg" width="89" height="89" viewBox="0 0 89 89"><defs><style>.a{fill:#fafafa;stroke:#f8f8f8;stroke-width:2px;}.b{fill:#005d63;}.c{stroke:none;}.d{fill:none;}</style></defs><g transform="translate(-1458 -987)"><g class="a" transform="translate(1458 987)"><circle class="c" cx="44.5" cy="44.5" r="44.5"/><circle class="d" cx="44.5" cy="44.5" r="43.5"/></g><path class="b" d="M305.391-57.265a10.585,10.585,0,0,0-10.466-3.356,1.546,1.546,0,0,1-1.526-.492l-.765-.881-1.808,1.57L289.178-62.4a1.219,1.219,0,0,0-.938-.439,1.221,1.221,0,0,0-.423.076,1.22,1.22,0,0,0-.351-.313l-2.293-1.359a1.221,1.221,0,0,0-.622-.171,1.228,1.228,0,0,0-.994.511,1.217,1.217,0,0,0-.633-.178,1.226,1.226,0,0,0-.3.036L280.1-63.6l-1.155-1.831a1.215,1.215,0,0,0-.926-.565l-.292-1.862a1.26,1.26,0,0,0-.027-.127l1.683-.233-.16-1.156a1.546,1.546,0,0,1,.634-1.473,10.585,10.585,0,0,0,4.361-10.089,10.591,10.591,0,0,0-8.254-8.9l-4.748,2.012-.019.258,4.367-.22.053,2.2a6.389,6.389,0,0,1,2.031,1.062,6.388,6.388,0,0,1,2.4,4.17,6.338,6.338,0,0,1-1.233,4.715,6.338,6.338,0,0,1-4.212,2.47,6.393,6.393,0,0,1-4.775-1.27,6.336,6.336,0,0,1-2.411-4.112,6.393,6.393,0,0,1,1.223-4.787,6.338,6.338,0,0,1,4.212-2.47,6.415,6.415,0,0,1,1.7-.009l-.021-.868-4.477.225.152-2.086,3.61-1.53a10.672,10.672,0,0,0-1.546.1,10.587,10.587,0,0,0-9.034,11.939,10.585,10.585,0,0,0,6.939,8.524,1.546,1.546,0,0,1,1.01,1.245l.16,1.156,2.657-.368a1.237,1.237,0,0,0,.015.2l.414,2.633a1.215,1.215,0,0,0,1.206,1.032h0l.038,0a1.223,1.223,0,0,0,.093.18l1.422,2.254a1.216,1.216,0,0,0,1.034.57h0a1.219,1.219,0,0,0,.651-.189l.51-.322.069.278a1.22,1.22,0,0,0,1.185.926h0a1.223,1.223,0,0,0,.3-.036l2.586-.645a1.219,1.219,0,0,0,.426-.2l1.6.946a1.221,1.221,0,0,0,.622.171,1.215,1.215,0,0,0,.347-.051L288-57.968l-1.483,1.287.765.881a1.546,1.546,0,0,1,.273,1.58A10.585,10.585,0,0,0,289.4-43.385a10.591,10.591,0,0,0,11.773,2.953l2.881-4.277-.125-.227-3.539,2.567-1.247-1.817a6.39,6.39,0,0,1-2.282.218,6.388,6.388,0,0,1-4.29-2.183,6.338,6.338,0,0,1-1.54-4.624,6.338,6.338,0,0,1,2.182-4.368,6.393,6.393,0,0,1,4.694-1.541,6.336,6.336,0,0,1,4.264,2.13,6.393,6.393,0,0,1,1.588,4.679,6.338,6.338,0,0,1-2.182,4.368,6.413,6.413,0,0,1-1.423.937l.491.716,3.628-2.632,1.011,1.831L303.1-41.4a10.668,10.668,0,0,0,1.24-.928A10.587,10.587,0,0,0,305.391-57.265Zm-29.683-7.344-.024,0-.037,0h0a.233.233,0,0,1-.229-.2l-.414-2.633a.231.231,0,0,1,.042-.173l.013-.016,1.614-.224a.232.232,0,0,1,.077.138l.316,2.014-.907.572A1.214,1.214,0,0,0,275.709-64.609Zm3.436,2.477-.786.5a.227.227,0,0,1-.123.036h0a.232.232,0,0,1-.2-.108l-1.3-2.061.387-.061a1.214,1.214,0,0,0,.8-.488,1.216,1.216,0,0,0,.221-.535l1.148,1.819A1.218,1.218,0,0,0,279.145-62.132Zm3.807.659-2.244.56a.233.233,0,0,1-.282-.169l-.162-.65a1.227,1.227,0,0,0,.283-.962l2.32-.578a.235.235,0,0,1,.057-.007.23.23,0,0,1,.124.037l-.213.36A1.224,1.224,0,0,0,282.952-61.473Zm3.506-.245a1.213,1.213,0,0,0-.434.828,1.251,1.251,0,0,0,0,.164l-1.567-.928a1.224,1.224,0,0,0-.03-.425l-.271-1.087.2-.333a.231.231,0,0,1,.2-.114.228.228,0,0,1,.118.033l2.293,1.359a.229.229,0,0,1,.051.041Zm.825,1.351.611-1.032a1.224,1.224,0,0,0,.139-.345l.058-.049a.229.229,0,0,1,.148-.054.232.232,0,0,1,.179.083l1.66,1.988-1.335,1.159Z" transform="translate(1216.883 1096.273)"/></g></svg>